<mxfile host="app.diagrams.net" modified="2023-03-28T06:09:54.871Z" agent="Mozilla/5.0 (Windows NT 10.0; WOW64) AppleWebKit/537.36 (KHTML, like Gecko) Chrome/94.0.4606.71 Safari/537.36 Core/1.94.197.400 QQBrowser/11.6.5265.400" version="21.1.1" etag="-4Kjv_JjHb614dktbtlC" type="github">
  <diagram name="第 1 页" id="gcHgvKgHPQ5B3vEb3doR">
    <mxGraphModel>
      <root>
        <mxCell id="0" />
        <mxCell id="1" parent="0" />
      </root>
    </mxGraphModel>
  </diagram>
</mxfile>
